<svg version="1" xmlns="http://www.w3.org/2000/svg" width="682.667" height="682.667" viewBox="0 0 512.000000 512.000000"><path d="M146.7 130.4c-1.5 1.8-10.3 12.8-19.8 24.2-9.4 11.5-18.7 22.9-20.8 25.4-2 2.4-7 8.5-11.1 13.5-4.2 4.9-13.6 16.4-21 25.5-7.4 9.1-13.7 16.7-14 17-.3.3-3.3 3.9-6.5 8-3.3 4.1-6.4 7.8-6.9 8.1-.4.4-.7 1.2-.5 1.7.2.6 6.8 8.9 14.6 18.4 7.8 9.5 24.1 29.4 36.3 44.3 12.2 14.8 23.8 29 25.8 31.5 5.3 6.4 19.7 23.8 23.5 28.3l3.2 3.9 3.1-4.9c1.7-2.6 7.3-11.7 12.4-20.1l9.2-15.2-3.4-4.3c-1.9-2.3-14.4-17.7-27.8-34.2-33.6-41.4-37.3-45.8-38.2-47.1-.4-.6 0-1.9 1-3 1.9-2 14.7-17.8 34.2-41.9 6.7-8.3 13.2-16.1 14.3-17.5 4.1-4.8 18.3-22.5 19.1-23.7.4-.8-3.8-8.6-10.5-19.5-15.1-24.7-13.1-22.5-16.2-18.4zM359.8 132.2c-1.8 2.9-7.4 12-12.4 20.3l-9.1 15 3.6 4.5c2 2.5 4.1 5 4.6 5.6.6.6 2.4 2.8 4.2 5 1.7 2.1 15.3 18.9 30.2 37.3 15 18.3 27 33.7 26.9 34.1-.2.7-27.8 35-33.8 42.1-2.1 2.4-3.3 4-12.5 15.4-4.4 5.5-8.2 10.2-8.5 10.5-2.9 2.8-14 17.1-14 18 0 1.4 20.6 35.7 22.9 38.2 1.5 1.6 2 1.1 8.1-6.3 3.6-4.5 7-8.6 7.5-9.3 1-1.1 13.1-15.7 20-24.1 1.8-2.2 8.8-10.8 15.6-19.1 6.8-8.3 14-17 15.9-19.4 1.9-2.4 8-9.8 13.5-16.4 24.7-29.8 24.7-29.8 23.2-31.5-.8-.9-6.9-8.4-13.6-16.6-6.8-8.3-13-15.9-14-17-2.4-2.9-15.4-18.7-16.8-20.5-.7-.8-6.1-7.4-12-14.6-5.9-7.2-13.5-16.4-16.8-20.5-3.3-4.1-6.2-7.6-6.5-7.9-.5-.5-8.9-10.7-18.3-22.3l-4.7-5.8-3.2 5.3zM287 131.4c-.5 1.2-5.5 17.8-11 37.1-9.6 33-20.7 70.9-25 85.5-5.9 19.8-19.4 65.9-20 68.5-.5 1.6-3.2 10.9-6 20.5-9.1 30.9-9.9 33.5-9.3 34 .2.3 10.5.5 22.8.5h22.3l2.2-8c1.2-4.4 4.6-16.1 7.5-26 4.7-16 13.3-45.3 39.2-133.5 4.1-14 9-30.9 11-37.5 1.9-6.6 3.9-13.4 4.3-15 .4-1.7 2.4-8.5 4.4-15.2 2-6.7 3.6-12.4 3.6-12.6 0-.2-10.2-.4-22.6-.4-21.9.1-22.6.1-23.4 2.1z"/></svg>